# xmcd CD database file
#
# Track frame offsets:
#	150
#	11954
#	23045
#	36410
#	52165
#	64475
#	76156
#	83909
#	97643
#	108751
#
# Disc length: 1488 seconds
#
# Revision: 0
# Processed by: cddbd v1.5.1PL0 Copyright (c) Steve Scherf et al.
# Submitted via: CDex 1.51
#
DISCID=7705ce0a
DTITLE=Hank Williams  - Live on health and happiness
DYEAR=1949
DGENRE=Country
TTITLE0=I'm So Lonesome I Could Cry
TTITLE1=Mind Your Own Business
TTITLE2=A Mansion On The Hill
TTITLE3=Thy Burdens are greater than mine
TTITLE4=Pan American
TTITLE5=When God Comes And Gathers All
TTITLE6=I Can't Get You Off My Mind
TTITLE7=Lost Highway
TTITLE8=The Prodigal Son
TTITLE9=Sally Goodin
EXTD=YEAR: 1949
EXTT0=
EXTT1=
EXTT2=
EXTT3=
EXTT4=
EXTT5=
EXTT6=
EXTT7=
EXTT8=
EXTT9=
PLAYORDER=
